<?xml version="1.0" encoding="UTF-8"?>
<svg id="Layer_2" data-name="Layer 2" xmlns="http://www.w3.org/2000/svg" viewBox="0 0 48.1 37.58">
  <defs>
    <style>
      .cls-1 {
        fill: #3d3632;
      }

      .cls-2 {
        fill: #fffdf8;
      }
    </style>
  </defs>
  <g>
    <path class="cls-2" d="M2.31,4.49h0c-1.28,0-2.31,1.03-2.31,2.31v28.48c0,1.28,1.03,2.31,2.31,2.31h43.48c1.28,0,2.31-1.03,2.31-2.31V6.8c0-1.28-1.03-2.31-2.31-2.31H2.31Z"/>
    <path class="cls-2" d="M19.61.7C19.22.25,18.71,0,18.18,0H6.95c-.53,0-1.04.25-1.42.7-1.07,1.26-2.15,2.52-3.22,3.78,6.84,0,13.68,0,20.52,0-1.07-1.26-2.15-2.52-3.22-3.78Z"/>
  </g>
  <g>
    <path class="cls-1" d="M36.41,13.65h-5.3c-.57-.73-1.13-1.46-1.69-2.19-.3-.38-.68-.59-1.09-.59h-8.57c-.4,0-.79.21-1.09.59-.56.73-1.12,1.46-1.69,2.19h-5.3c-.59,0-1.07.48-1.07,1.08v15.4c0,.59.48,1.07,1.07,1.07h24.72c.59,0,1.07-.48,1.07-1.07v-15.4c0-.6-.48-1.08-1.07-1.08ZM24.43,27.22c-2.9,0-5.25-2.35-5.25-5.25s2.35-5.25,5.25-5.25,5.25,2.35,5.25,5.25-2.35,5.25-5.25,5.25ZM35.22,17.18c-.45.45-1.16.45-1.6,0-.45-.44-.45-1.16,0-1.6s1.16-.44,1.6,0c.44.45.44,1.16,0,1.6Z"/>
    <path class="cls-1" d="M27.26,24.5c-1.36,1.56-3.73,1.73-5.29.37-1.57-1.36-1.74-3.73-.38-5.29,1.36-1.57,3.73-1.74,5.29-.38,1.57,1.36,1.74,3.73.38,5.3Z"/>
  </g>
</svg>